<?xml version="1.0" encoding="UTF-8" standalone="no"?>
<!DOCTYPE svg PUBLIC "-//W3C//DTD SVG 1.1//EN"
 "http://www.w3.org/Graphics/SVG/1.1/DTD/svg11.dtd">
<!-- Generated by graphviz version 10.0.1 (20240210.2158)
 -->
<!-- Title: G Pages: 1 -->
<svg width="134pt" height="225pt"
 viewBox="0.00 0.00 134.21 225.00" xmlns="http://www.w3.org/2000/svg" xmlns:xlink="http://www.w3.org/1999/xlink">
<g id="graph0" class="graph" transform="scale(1 1) rotate(0) translate(4 221)">
<title>G</title><style>.edge>path:hover{stroke-width:8}</style>
<polygon fill="white" stroke="none" points="-4,4 -4,-221 130.21,-221 130.21,4 -4,4"/>
<!-- Logger -->
<g id="node1" class="node">
<title>Logger</title><style>.edge>path:hover{stroke-width:8}</style>
<ellipse fill="#b65353" stroke="black" cx="27.21" cy="-199" rx="27.21" ry="18"/>
<text text-anchor="middle" x="27.21" y="-195.5" font-family="Helvetica,sans-Serif" font-size="10.00" fill="#ffffff">Logger</text>
</g>
<!-- ShellCommand -->
<g id="node4" class="node">
<title>ShellCommand</title><style>.edge>path:hover{stroke-width:8}</style>
<ellipse fill="#7a49ac" stroke="black" cx="63.21" cy="-127" rx="49.31" ry="18"/>
<text text-anchor="middle" x="63.21" y="-123.5" font-family="Helvetica,sans-Serif" font-size="10.00" fill="#ffffff">ShellCommand</text>
</g>
<!-- Logger&#45;&gt;ShellCommand -->
<g id="edge1" class="edge">
<title>Logger&#45;&gt;ShellCommand</title><style>.edge>path:hover{stroke-width:8}</style>
<path fill="none" stroke="black" d="M35.74,-181.41C39.81,-173.51 44.77,-163.85 49.36,-154.94"/>
<polygon fill="#b65353" stroke="black" points="52.34,-156.8 53.8,-146.3 46.11,-153.59 52.34,-156.8"/>
</g>
<!-- SSD -->
<g id="node2" class="node">
<title>SSD</title><style>.edge>path:hover{stroke-width:8}</style>
<ellipse fill="#85b653" stroke="black" cx="99.21" cy="-199" rx="27" ry="18"/>
<text text-anchor="middle" x="99.21" y="-195.5" font-family="Helvetica,sans-Serif" font-size="10.00" fill="#000000">SSD</text>
</g>
<!-- SSD&#45;&gt;ShellCommand -->
<g id="edge2" class="edge">
<title>SSD&#45;&gt;ShellCommand</title><style>.edge>path:hover{stroke-width:8}</style>
<path fill="none" stroke="black" d="M90.86,-181.76C86.8,-173.87 81.81,-164.16 77.19,-155.18"/>
<polygon fill="#85b653" stroke="black" points="80.4,-153.76 72.71,-146.47 74.17,-156.96 80.4,-153.76"/>
</g>
<!-- Shell_py -->
<g id="node3" class="node">
<title>Shell_py</title><style>.edge>path:hover{stroke-width:8}</style>
<ellipse fill="#59a6a6" stroke="black" cx="63.21" cy="-18" rx="30.82" ry="18"/>
<text text-anchor="middle" x="63.21" y="-14.5" font-family="Helvetica,sans-Serif" font-size="10.00" fill="#000000">Shell.py</text>
</g>
<!-- ShellCommand&#45;&gt;Shell_py -->
<g id="edge3" class="edge">
<title>ShellCommand&#45;&gt;Shell_py</title><style>.edge>path:hover{stroke-width:8}</style>
<path fill="none" stroke="black" d="M63.21,-108.81C63.21,-92.27 63.21,-66.98 63.21,-47.44"/>
<polygon fill="#7a49ac" stroke="black" points="66.71,-47.66 63.21,-37.66 59.71,-47.66 66.71,-47.66"/>
</g>
</g>
</svg>
